<?xml version="1.0" standalone="no"?><!DOCTYPE svg PUBLIC "-//W3C//DTD SVG 1.1//EN" "http://www.w3.org/Graphics/SVG/1.1/DTD/svg11.dtd"><svg t="1728990625610" class="icon" viewBox="0 0 1112 1024" version="1.1" xmlns="http://www.w3.org/2000/svg" p-id="4326" xmlns:xlink="http://www.w3.org/1999/xlink" width="217.1875" height="200"><path d="M419.310345 876.137931c-1.765517-1.103448-0.441379-3.972414 4.193103-9.268965 6.4-7.503448 26.703448-48.110345 26.703449-53.848276 0-1.544828-3.972414-7.503448-9.048276-13.24138-4.855172-5.517241-10.813793-14.565517-13.24138-19.641379-5.958621-12.358621-17.875862-20.524138-34.206896-23.172414-20.082759-3.310345-26.482759-2.648276-44.358621 4.413793-19.2 7.724138-18.758621 7.944828-40.606896-10.813793-14.786207-12.57931-19.42069-18.537931-19.64138-25.37931 0-7.282759 7.062069-20.744828 12.579311-23.172414 2.648276-1.324138 5.075862-3.310345 5.075862-4.634483 0-2.427586-28.689655-3.751724-61.351724-2.427586-13.682759 0.441379-21.406897-0.22069-23.613794-1.986207-1.765517-1.544828-5.296552-9.268966-7.724137-17.434483-9.048276-28.910345-12.358621-30.896552-44.358621-25.37931-20.303448 3.310345-24.717241 3.531034-29.351724 0.882759-7.282759-3.751724-8.827586-8.606897-4.413793-13.462069 3.089655-3.531034 7.062069-4.193103 24.937931-4.193104 22.510345 0 24.717241-0.662069 28.468965-7.724138 3.089655-6.17931-0.22069-32.22069-4.855172-39.062069-4.634483-6.62069-4.413793-14.124138 0.662069-21.186206 12.137931-17.434483 18.096552-33.544828 31.117241-86.068966 9.268966-37.296552 19.2-56.055172 43.255172-82.537931 15.006897-16.110345 15.889655-18.096552 29.572414-63.558621 6.4-21.186207 12.8-41.268966 14.565518-44.57931s9.710345-13.682759 17.655172-23.172414c8.165517-9.489655 21.848276-26.703448 30.675862-38.17931 26.041379-34.206897 35.089655-43.255172 51.42069-50.979311 8.165517-3.972414 21.406897-12.358621 29.572413-18.537931 7.944828-6.4 22.510345-16.110345 32.22069-21.848275 24.717241-14.344828 31.77931-15.006897 69.075862-5.075862 16.331034 4.413793 37.737931 9.931034 47.448276 12.35862 30.013793 7.282759 55.172414 21.848276 83.2 48.331035 10.593103 9.710345 22.289655 18.758621 28.027586 20.965517 20.303448 8.386207 20.744828 8.606897 25.6 22.731034 5.075862 15.227586 8.606897 21.186207 17.655173 30.455173 9.710345 9.710345 23.834483 15.889655 74.593103 32.441379 50.97931 16.993103 77.462069 29.572414 103.282759 48.993104 15.448276 11.696552 36.193103 33.324138 44.57931 46.124138 6.841379 10.593103 4.413793 13.02069-19.641379 19.641379-12.137931 3.310345-33.986207 9.489655-48.551724 13.682758-24.496552 7.062069-41.268966 10.372414-88.275862 16.993104-9.710345 1.324138-27.144828 4.855172-38.62069 7.724138s-28.910345 5.737931-38.4 6.620689c-15.889655 1.324138-18.537931 2.427586-29.351724 10.593104-6.62069 4.855172-12.8 10.372414-13.903449 12.358621-2.427586 4.634483 1.765517 16.551724 10.372414 28.910344 3.531034 5.517241 10.151724 16.331034 14.565518 24.275863s13.462069 20.744828 20.082758 28.689655c6.841379 7.944828 18.537931 23.393103 26.041379 34.206896 7.503448 11.034483 19.641379 26.262069 26.924138 33.765517 13.02069 13.682759 13.462069 14.344828 13.24138 25.6-0.22069 6.4-2.868966 20.303448-5.958621 31.337932-3.089655 10.813793-8.165517 29.351724-11.255172 41.048275-9.048276 34.868966-21.848276 55.172414-42.593104 67.310345-9.489655 5.517241-14.565517 5.737931-9.931034 0.22069 3.089655-3.972414 5.737931-22.289655 3.751724-28.027586-1.544828-5.075862-8.165517-6.17931-11.696552-1.765518-1.103448 1.324138-3.310345 6.62069-5.075862 11.475862-1.544828 4.855172-3.751724 9.710345-4.634483 10.813794-0.882759 1.324138-1.765517 5.075862-1.765517 8.386206 0 4.413793 1.103448 6.17931 3.972414 6.179311 4.193103 0.22069 6.62069-1.986207-24.275862 22.289655-19.2 15.006897-45.903448 31.558621-64.662069 39.503448-9.710345 4.193103-15.889655 4.855172-49.655173 5.517242-21.186207 0.441379-48.331034 1.765517-60.248276 3.310344-22.951724 2.648276-34.648276 1.544828-34.648275-3.310344 0-1.986207 4.634483-3.310345 13.903448-4.413793 45.241379-4.855172 62.896552-9.931034 67.751724-18.979311 5.296552-9.710345 9.710345-13.02069 17.655172-13.020689 6.841379 0 8.606897 1.103448 13.24138 9.048275 9.268966 15.006897 15.227586 15.448276 41.931034 1.986207 17.875862-8.827586 48.110345-28.689655 54.289655-35.751724 4.855172-5.296552 12.137931-25.158621 16.331035-44.8 3.089655-14.344828 15.006897-35.310345 26.262069-46.124138 7.724138-7.724138 10.372414-8.827586 19.42069-8.827586l10.593103-0.22069 0.662069 12.358621c0.441379 6.841379-0.882759 18.758621-2.648276 26.482759s-2.868966 14.344828-2.427586 14.786207c1.544828 1.765517 9.710345-16.551724 13.903448-31.558621 4.855172-16.772414 16.993103-62.455172 18.97931-72.165517 1.103448-5.296552-0.662069-8.386207-13.020689-21.627587-16.772414-18.537931-43.034483-56.055172-43.034483-61.793103 0-2.427586-1.986207-4.413793-4.634483-4.855172s-5.958621-2.648276-7.282758-5.075862-3.751724-5.296552-5.075862-6.179311c-1.544828-0.882759-2.868966-3.310345-2.868966-4.855172 0-1.765517-0.882759-3.310345-1.765517-3.310345s-5.517241-6.62069-10.151724-14.565517-13.903448-19.641379-20.303449-25.82069c-19.2-18.317241-19.2-32-0.441379-43.475862 6.4-3.972414 15.448276-10.151724 20.082759-13.903448 11.034483-8.606897 8.606897-10.151724-20.965517-12.8-12.137931-1.103448-25.6-3.751724-30.013794-5.737931-4.634483-1.986207-16.110345-4.193103-25.820689-4.855173l-17.655173-1.324138v-23.172413c0-27.365517-1.986207-32-18.096551-41.048276-55.613793-31.337931-58.041379-33.324138-58.04138-44.8 0-7.724138 0.882759-8.827586 8.827587-12.358621 7.282759-3.310345 13.02069-3.751724 36.413793-2.868966 27.586207 1.103448 27.806897 1.103448 26.482758-3.531034-0.882759-2.648276-1.986207-10.813793-2.648276-18.317241l-1.103448-13.682759 7.944828-1.324138c4.413793-0.882759 14.124138-0.441379 21.848276 1.103448 11.696552 2.427586 18.317241 2.206897 42.372413-0.882758 36.413793-4.413793 39.062069-4.413793 49.875862 0.882758l8.827587 4.634483-10.593104-11.034483c-5.737931-6.17931-20.082759-21.186207-31.558621-33.544827-58.703448-62.234483-67.089655-67.972414-120.275862-81.434483-19.42069-4.855172-40.165517-10.593103-46.124138-12.358621-19.862069-6.62069-28.910345-2.648276-84.082758 37.737931-8.386207 6.17931-20.303448 14.344828-26.482759 18.096552-13.02069 8.386207-36.634483 32.22069-48.772414 49.213793-4.634483 6.62069-14.786207 19.862069-22.289655 29.351724-20.965517 26.041379-25.6 37.517241-35.972414 89.6-6.17931 30.896552-13.682759 44.8-37.296551 69.517242-18.758621 19.641379-26.703448 29.131034-26.703449 32.662069 0 1.103448 2.868966 1.765517 6.4 1.765517 7.944828 0 9.048276 2.868966 9.048276 21.627586 0 15.668966-9.710345 56.937931-17.434482 74.593104-3.531034 7.944828-6.4 10.813793-14.565518 14.344827-8.606897 3.751724-9.710345 5.075862-7.724138 8.606897 1.103448 2.206897 2.206897 10.372414 2.206897 18.096551v13.903449h16.551724c18.758621 0 20.965517 1.544828 20.965517 14.344827 0 10.813793-3.310345 13.241379-17.434482 13.24138h-11.917242l4.634483 5.075862c3.972414 4.193103 4.855172 7.724138 4.855172 18.75862v13.682759l37.075862 0.22069c20.303448 0.22069 44.358621 0.882759 53.406897 1.765517l16.551724 1.324138 0.662069 10.151724c0.662069 9.268966 0 10.813793-6.841379 16.772414l-7.503448 6.620689 21.627586 2.427587c24.937931 2.648276 46.124138 10.813793 71.724138 27.586206 13.682759 8.827586 17.655172 13.02069 29.793103 31.779311 13.462069 20.744828 14.124138 22.289655 13.903448 34.868965 0 11.696552-1.324138 15.668966-11.255172 33.765518-7.503448 13.462069-10.151724 20.303448-8.165517 20.303448 3.089655 0 4.413793 6.62069 1.544827 6.620689-1.103448 0.22069-5.958621 1.103448-11.034482 1.986207s-10.372414 1.103448-11.696552 0.22069z m456.827586-455.724138c50.537931-13.241379 71.944828-19.42069 73.931035-21.186207 1.324138-1.324138 0.22069-3.310345-2.868966-5.517241-3.531034-2.427586-4.855172-5.517241-4.855172-11.034483v-7.724138l-15.006897 1.544828c-13.02069 1.103448-16.331034 0.662069-24.275862-3.310345-9.710345-4.855172-50.97931-16.772414-52.524138-15.006897-0.662069 0.441379 3.531034 2.648276 9.048276 4.855173l10.151724 3.751724-0.662069 11.255172c-0.882759 16.331034-3.972414 17.434483-42.593103 16.331035-24.717241-0.662069-33.544828-1.986207-44.137931-5.737931-11.917241-4.413793-15.668966-4.634483-39.282759-3.310345l-26.262069 1.544828 6.841379 4.193103c3.751724 2.427586 8.827586 7.724138 11.475862 11.917241 6.841379 11.255172 13.241379 13.462069 43.917242 14.786207 41.489655 2.206897 55.172414 3.972414 55.172414 7.282759 0 3.751724 16.772414 1.986207 41.931034-4.634483z m-223.337931-43.034483c13.682759-4.855172 29.572414-11.255172 35.751724-14.344827 13.02069-6.62069 14.565517-6.62069 26.703448-1.103449 10.813793 4.855172 36.634483 5.958621 44.358621 1.986207 6.62069-3.531034 3.751724-13.682759-7.062069-25.37931-4.855172-5.296552-8.827586-11.034483-8.827586-12.57931 0-4.413793 4.855172-8.165517 10.813793-8.386207 7.503448 0 25.158621-7.282759 23.172414-9.268966-0.882759-0.882759-0.441379-1.544828 0.882758-1.544827 1.103448 0 2.648276 0.662069 3.089656 1.765517 0.882759 1.986207 27.144828 12.57931 36.634482 14.786207 4.193103 0.882759 7.062069 0.662069 7.062069-0.662069 0-4.193103-14.344828-11.034483-32.882758-15.668966-20.965517-5.296552-24.937931-5.737931-20.082759-2.206896 2.648276 1.986207 2.427586 2.206897-1.103448 0.882758-2.427586-0.882759-7.503448-1.986207-11.475862-2.427586s-17.875862-5.737931-30.896552-11.696552c-26.703448-12.137931-33.324138-12.57931-67.310345-5.95862-24.496552 4.855172-29.793103 7.724138-46.344827 24.055172-8.165517 8.165517-16.331034 14.786207-17.875862 14.786207s-5.296552 2.427586-7.944828 5.296552c-6.62069 7.062069-5.075862 13.903448 6.17931 26.262069 4.634483 5.075862 11.475862 13.903448 15.448276 19.862069 4.855172 7.282759 8.606897 10.372414 12.137931 10.372414 2.648276 0 16.110345-3.972414 29.572414-8.827587z m51.2 2.206897c-6.62069-5.296552-8.386207-5.296552-17.875862-1.324138l-7.503448 3.089655 8.827586 1.103448c4.855172 0.441379 11.917241 0.882759 15.448276 1.103449l6.620689 0.441379-5.517241-4.413793z m107.034483-35.531035c-15.668966-5.958621-32.441379-11.475862-37.517242-12.137931l-8.827586-1.324138 5.737931 4.193104c3.089655 2.206897 8.386207 7.062069 11.475862 10.593103 5.296552 6.4 6.4 6.62069 28.468966 7.944828 12.358621 0.662069 24.275862 1.324138 26.041379 1.544828s-9.489655-4.634483-25.37931-10.813794z" fill="#C5C5C5" p-id="4327"></path><path d="M663.393103 338.537931c-5.737931-15.006897 3.751724-37.737931 18.979311-45.02069 5.075862-2.427586 9.489655-4.413793 9.931034-4.413793 1.765517 0 0.22069 13.241379-2.427586 24.055173-4.413793 16.110345-13.241379 28.910345-19.862069 28.910345-2.868966 0-5.958621-1.544828-6.62069-3.531035zM452.413793 869.517241c0-3.751724 1.544828-4.413793 9.931035-4.413793s9.931034 0.662069 9.931034 4.413793-1.544828 4.413793-9.931034 4.413793-9.931034-0.662069-9.931035-4.413793zM493.903448 389.737931c-5.517241-7.724138-5.296552-27.806897 0.44138-38.4 7.724138-14.344828 9.489655-15.889655 20.744827-15.889655 14.786207 0 18.97931 4.855172 18.979311 22.951724 0 12.358621-0.882759 15.448276-7.282759 24.717241-7.062069 10.151724-7.944828 10.813793-18.317241 11.475862-9.268966 0.441379-11.255172-0.22069-14.565518-4.855172z" fill="#C5C5C5" p-id="4328"></path><path d="M436.965517 870.62069c0-1.986207-1.986207-3.310345-5.737931-3.310345h-5.517241l4.193103-5.958621c2.427586-3.531034 8.827586-15.448276 14.565518-26.482758 7.724138-15.006897 10.151724-21.848276 8.827586-25.379311-0.662069-2.868966-7.503448-14.344828-14.786207-25.6-11.255172-17.655172-15.227586-21.848276-28.910345-30.675862-29.793103-19.42069-48.331034-26.041379-78.344828-28.027586-26.924138-1.986207-27.806897-3.310345-10.813793-18.97931 7.724138-7.282759 10.813793-11.475862 9.931035-14.124138-0.882759-1.986207-2.868966-3.531034-4.855173-3.531035-1.765517 0-3.310345-1.544828-3.310344-3.531034 0-2.648276 1.986207-3.089655 9.489655-2.648276 9.048276 0.662069 9.268966 0.882759 9.931034 8.827586 0.441379 6.4-0.662069 9.489655-5.95862 15.668966-3.751724 4.193103-6.841379 8.165517-6.84138 9.048275 0 0.662069 6.62069 1.324138 15.006897 1.324138 17.434483 0.22069 30.234483 2.868966 46.786207 9.931035 6.62069 2.868966 13.682759 5.737931 15.448276 6.4s9.268966 6.17931 16.551724 11.917241c9.710345 7.944828 15.006897 14.565517 20.965517 25.82069 4.193103 8.386207 9.048276 16.551724 10.593103 18.317241 1.324138 1.544828 2.648276 4.855172 2.648276 7.282759 0 2.206897 1.103448 4.193103 2.206897 4.193103 1.324138 0 2.206897 5.517241 2.206896 12.137931s-0.882759 12.137931-2.206896 12.137931c-1.103448 0-2.206897 1.544828-2.206897 3.310345 0 4.193103-13.02069 30.675862-15.668965 31.558621-1.103448 0.441379-1.986207 1.765517-1.986207 2.868965s12.137931 1.986207 27.144827 1.986207c40.827586 0 85.406897-9.048276 85.406897-17.434482 0-3.089655 13.02069-18.317241 20.303448-23.834483 4.634483-3.310345 10.151724-5.075862 15.668966-5.075862h8.606896l-0.882758 14.344827c-0.882759 18.317241 1.544828 20.303448 15.448276 13.02069 5.517241-2.868966 11.696552-5.296552 13.903448-5.296552 6.4 0 25.82069-8.386207 36.193103-15.448276 5.296552-3.751724 10.151724-6.62069 10.813793-6.620689 0.882759 0 4.413793-3.310345 7.944828-7.062069 7.724138-8.606897 13.462069-22.731034 18.537931-46.344828 2.648276-11.696552 6.4-20.744828 12.358621-29.793103 16.110345-24.055172 22.951724-29.351724 37.737931-29.351724h10.813793v17.213793c0 22.289655-13.02069 62.675862-22.510345 69.517241-3.310345 2.648276-6.62069 3.972414-7.282759 3.531035-0.441379-0.662069 2.868966-11.255172 7.724138-23.393104 9.048276-23.393103 14.786207-48.551724 12.579311-54.289655-1.986207-5.075862-8.606897-2.206897-18.758621 7.944827-9.489655 9.710345-24.717241 36.413793-24.717241 43.475863 0 8.165517-11.475862 40.827586-16.110345 45.903448-6.62069 7.282759-37.075862 27.144828-55.834483 36.413793-26.703448 13.462069-43.475862 13.682759-51.42069 0.882759-9.489655-14.786207-8.386207-14.124138-13.020689-9.048276-2.427586 2.427586-5.517241 6.62069-6.84138 9.268965-6.17931 11.475862-34.868966 17.655172-90.041379 19.42069-31.337931 0.882759-35.972414 0.662069-35.972414-2.427586zM759.172414 755.862069c0-3.310345 2.206897-13.241379 5.075862-22.289655 3.751724-12.57931 5.737931-16.331034 9.048276-16.331035 3.531034 0 3.751724 1.103448 2.427586 7.944828-2.206897 12.8-10.813793 34.648276-13.682759 35.751724-1.765517 0.441379-2.868966-1.324138-2.868965-5.075862zM772.413793 709.075862c0-3.531034 2.427586-15.006897 5.517241-26.041379 3.089655-10.813793 5.517241-25.158621 5.517242-31.337931 0-12.358621 2.648276-14.786207 6.841379-6.84138 3.310345 6.17931 1.544828 20.303448-5.958621 48.110345-3.751724 14.124138-7.062069 22.068966-8.827586 22.068966-1.986207 0-3.089655-2.427586-3.089655-5.958621zM227.310345 687.006897c-5.296552-2.206897-6.4-5.296552-5.075862-16.551725 1.103448-9.489655 0.662069-11.475862-4.634483-16.993103-9.710345-10.151724-15.006897-27.586207-13.241379-44.358621 1.103448-12.358621 0.662069-15.889655-3.310345-23.172414-5.296552-10.151724-4.193103-12.358621 10.151724-18.75862 11.696552-5.075862 15.227586-12.358621 24.937931-48.993104 6.841379-25.6 8.165517-40.165517 4.413793-45.903448-1.765517-2.648276-3.089655-2.868966-9.048276-0.662069-3.972414 1.544828-7.724138 2.206897-8.386207 1.765517-0.441379-0.662069 0.662069-6.62069 2.868966-13.462069 3.089655-10.151724 7.503448-16.110345 25.82069-35.310344 26.041379-27.586207 33.103448-40.165517 39.503448-71.724138 10.372414-52.082759 15.006897-63.77931 35.972414-89.6 7.724138-9.489655 18.537931-23.613793 24.055172-31.558621 13.903448-19.42069 34.427586-38.841379 56.937931-53.848276 10.372414-6.841379 29.131034-20.082759 41.931035-28.910345 27.806897-19.862069 35.751724-23.834483 47.448275-24.055172 13.903448 0 25.37931 2.868966 25.379311 6.620689 0 2.868966-2.648276 3.089655-17.655173 1.765518-12.57931-1.103448-17.655172-0.662069-17.655172 1.103448 0 1.324138-2.427586 2.427586-5.517241 2.427586-3.531034 0-5.517241 1.324138-5.517242 3.310345 0 1.765517-1.986207 3.310345-4.413793 3.310345s-4.413793 1.544828-4.413793 3.310345-1.544828 3.310345-3.310345 3.310345-3.310345 0.882759-3.310345 1.986206c0 2.206897-22.731034 19.2-48.551724 35.972414-10.372414 6.841379-21.186207 15.006897-24.055172 18.096552-3.310345 3.531034-7.724138 5.737931-11.696552 5.737931-5.296552 0-6.17931 0.882759-6.17931 6.62069 0 4.193103-1.544828 7.503448-4.413793 9.268965-2.427586 1.544828-4.413793 3.972414-4.413794 5.517242s-0.882759 2.868966-2.206896 2.868965c-1.103448 0-2.206897 1.544828-2.206897 3.310345 0 1.986207-1.544828 3.972414-3.310344 4.634483-1.765517 0.882759-3.310345 2.648276-3.310345 4.413793s-0.882759 3.089655-2.206897 3.089655c-1.103448 0-2.206897 1.544828-2.206896 3.310345s-1.986207 4.413793-4.413793 5.95862-4.413793 3.531034-4.413794 4.413794-3.531034 6.4-7.944827 11.917241c-13.02069 17.213793-16.331034 26.482759-22.951724 61.572414-8.827586 47.889655-16.331034 62.675862-49.875862 97.324138-10.151724 10.813793-18.537931 20.082759-18.537931 20.965517s2.648276 1.986207 6.17931 2.427586c5.958621 0.662069 5.958621 0.882759 6.62069 18.096552 0.441379 13.903448-0.882759 22.951724-6.179311 44.137931-8.827586 33.986207-15.227586 48.551724-23.613793 52.965517-6.4 3.089655-6.62069 3.751724-5.737931 16.110345 0.662069 7.062069 1.324138 13.903448 1.765517 15.227586s7.282759 3.089655 15.448276 3.531035c18.317241 1.544828 23.172414 5.517241 23.172414 18.317241 0 7.724138-1.103448 10.151724-5.737931 13.241379-3.089655 1.986207-8.827586 4.193103-12.57931 4.855173l-7.062069 1.103448v15.227586c0 8.606897 0.882759 15.227586 2.206896 15.448276 1.324138 0 11.475862 0 22.731035-0.22069 19.2-0.441379 20.303448-0.22069 20.303448 4.193104s-1.324138 4.634483-19.641379 4.634483c-10.813793 0-20.965517 0.441379-22.731035 0.882758-1.544828 0.662069-4.413793 0.441379-6.17931-0.220689z m13.020689-54.510345c7.503448-9.048276-12.8-16.993103-23.172413-9.048276-4.193103 3.310345-4.193103 3.310345 1.103448 7.724138 5.958621 5.075862 18.317241 5.958621 22.068965 1.324138zM297.489655 687.006897c-2.206897-0.441379-3.972414-2.427586-3.972414-4.193104 0-2.206897 3.089655-3.089655 12.137931-3.089655 10.593103 0 12.137931 0.441379 12.137931 4.413793 0 3.751724-1.324138 4.413793-8.165517 4.193103-4.634483-0.22069-10.151724-0.662069-12.137931-1.324137zM138.593103 648.827586c-4.855172-3.089655-5.075862-5.296552-0.441379-9.710345 5.737931-5.958621 33.986207-3.531034 33.986207 2.868966 0 5.737931-26.482759 11.034483-33.544828 6.841379zM758.510345 625.213793c-0.882759-0.662069-1.544828-3.310345-1.544828-5.517241s-1.544828-3.972414-3.310345-3.972414-3.310345-1.544828-3.310344-3.310345-0.882759-3.310345-2.206897-3.310345c-1.103448 0-2.206897-1.544828-2.206897-3.310345s-0.882759-3.310345-2.206896-3.310344c-1.103448 0-2.206897-1.544828-2.206897-3.310345s-0.882759-3.310345-2.206896-3.310345c-1.103448 0-2.206897-1.544828-2.206897-3.310345s-0.882759-3.310345-2.206896-3.310345c-1.103448 0-2.206897-1.765517-2.206897-4.193103 0-2.206897-1.986207-4.634483-4.413793-5.296552-3.310345-0.882759-4.413793-3.089655-4.413793-7.944827 0-5.737931-0.882759-6.841379-5.517241-6.84138-3.972414 0-5.517241-1.103448-5.517242-4.413793 0-2.427586-1.544828-4.413793-3.310345-4.413793s-3.310345-1.544828-3.310344-3.310345-0.882759-3.310345-2.206897-3.310345c-1.103448 0-2.206897-2.427586-2.206897-5.517241 0-3.531034-1.324138-5.517241-3.310344-5.517241s-3.310345-1.986207-3.310345-5.517242-1.324138-5.517241-3.310345-5.517241-3.310345-1.986207-3.310345-5.296552c0-3.972414-1.324138-5.517241-4.855172-6.17931-3.751724-0.441379-5.296552-2.427586-5.737931-6.62069-0.662069-5.075862-1.765517-6.17931-7.062069-6.17931-7.282759 0-8.827586-3.089655-8.827586-16.772414 0-7.062069 0.882759-9.710345 3.310344-9.710345 1.765517 0 3.310345-1.544828 3.310345-3.310345s1.544828-3.310345 3.310345-3.310344 3.310345-0.882759 3.310345-2.206897c0-1.103448 2.427586-2.648276 5.517241-3.531035 3.089655-0.662069 5.517241-2.206897 5.517242-3.310344s1.986207-1.986207 4.413793-1.986207 4.413793-1.324138 4.413793-3.089655c0-1.544828 1.544828-4.413793 3.531034-5.958621 3.089655-2.648276 3.089655-3.089655-0.662069-4.413793-2.206897-0.882759-6.62069-1.765517-9.931034-1.765517-4.855172-0.22069-6.17931-1.324138-6.179311-4.855173 0-4.413793 0.882759-4.634483 10.593104-3.531034 13.903448 1.544828 22.510345 5.737931 22.510345 10.593103 0 4.634483-14.124138 17.213793-31.337931 27.586207-17.655172 10.813793-17.655172 14.565517-1.103449 30.896552 6.4 6.17931 16.551724 19.641379 22.951725 29.793103 6.17931 10.151724 16.110345 24.055172 21.848275 30.675862 5.517241 6.62069 16.110345 20.524138 23.172414 30.896552s15.006897 21.406897 17.434483 24.937931l4.855172 5.958621h-6.4c-3.751724 0-7.282759-0.662069-7.944827-1.544828zM600.717241 501.627586c0.662069-7.944828 1.103448-8.386207 9.048276-9.048276l8.165517-0.662069v17.875862h-17.875862l0.662069-8.165517z" fill="#A9A9A9" p-id="4329"></path><path d="M655.448276 439.834483c-3.089655-0.441379-9.048276-1.986207-13.241379-3.310345-4.193103-1.544828-15.668966-2.648276-25.379311-2.868966-9.710345 0-18.97931-0.882759-20.303448-1.765517-3.972414-2.427586-3.531034-21.406897 0.662069-33.765517 5.958621-17.875862 0.662069-25.6-28.468966-40.386207-10.593103-5.296552-21.186207-11.475862-23.393103-13.903448-2.427586-2.206897-5.517241-3.972414-6.841379-3.972414-1.103448 0-2.206897-0.882759-2.206897-2.206897 0-1.103448-0.882759-2.206897-1.986207-2.206896-1.324138 0-0.662069 3.531034 1.103448 7.724138 3.531034 8.827586 3.972414 27.586207 0.882759 38.4-7.282759 25.6-31.77931 37.296552-46.565517 22.510345-5.737931-5.958621-6.4-7.944828-6.4-21.186207 0-15.448276 3.310345-24.055172 15.889655-42.372414 5.737931-8.606897 7.282759-9.489655 15.668966-9.489655h9.268965v-20.744828l11.034483-4.193103c9.268966-3.531034 15.227586-3.972414 35.972414-3.089655 22.289655 0.882759 24.717241 0.662069 23.613793-2.648276-3.089655-7.724138-3.751724-26.041379-1.103449-31.117242 2.427586-4.634483 3.531034-4.855172 17.434483-3.310345 16.331034 1.986207 37.517241 2.206897 75.255173 0.882759l25.6-0.882759-13.02069-16.110344c-7.062069-8.606897-16.993103-18.758621-22.068966-22.289656-10.813793-7.503448-17.213793-14.124138-20.303448-21.186206-2.648276-6.4-20.303448-25.37931-23.393103-25.379311-1.103448 0-2.648276-1.544828-3.310345-3.310345-0.882759-1.765517-2.648276-3.310345-4.413793-3.310344s-3.089655-0.882759-3.089655-2.206897c0-1.103448-1.544828-2.206897-3.310345-2.206897s-3.310345-1.544828-3.310345-3.310344-1.544828-3.310345-3.531035-3.310345-9.489655-2.206897-16.551724-5.075862c-9.048276-3.310345-13.02069-5.958621-13.020689-8.606897 0-5.075862 3.972414-5.075862 17.655172 0.22069 16.993103 6.4 47.006897 27.586207 58.924138 41.268965 5.737931 6.841379 18.97931 21.186207 29.351724 32 10.372414 10.593103 24.275862 25.158621 31.117242 32.22069 15.006897 15.668966 40.386207 30.455172 62.013793 35.972414 48.331034 12.358621 106.372414 37.075862 130.868965 55.613793 11.917241 9.268966 31.337931 27.806897 36.855173 35.751724l4.634482 6.17931-14.124138-1.544827c-9.489655-0.882759-20.082759-4.193103-32.220689-9.931035-9.931034-4.855172-20.744828-9.268966-24.055173-10.151724-5.296552-1.324138-5.517241-1.103448-3.310345 3.089655 1.324138 2.427586 2.427586 9.048276 2.427587 14.565518 0 9.048276-0.662069 10.372414-6.84138 13.462069-3.531034 1.986207-13.903448 4.413793-22.510344 5.296551-8.827586 1.103448-24.496552 3.089655-34.868966 4.634483-27.586207 3.972414-44.8 0.662069-53.848276-10.151724l-6.841379-7.944828-13.462069 1.544828-13.682759 1.544828 5.517242 8.165517c2.868966 4.634483 7.724138 9.489655 10.372413 10.813793 4.413793 1.986207 41.489655 5.075862 101.958621 8.386207 20.744828 1.103448 26.262069 0.441379 38.62069-3.310345 7.944828-2.427586 16.993103-4.634483 20.524138-4.634483 3.310345 0 5.958621-0.882759 5.95862-2.206896 0-1.103448 3.531034-2.206897 7.724138-2.206897 10.593103 0 10.151724 5.517241-0.441379 8.386207-4.634483 1.103448-16.993103 4.634483-27.586207 7.724138-10.593103 3.310345-30.455172 7.282759-44.137931 9.268965-13.682759 1.765517-31.337931 4.193103-39.282759 5.517242-27.144828 3.972414-26.041379 1.324138 2.206897-5.737931l16.551724-3.972414-11.034483-1.544828c-5.958621-0.882759-24.496552-2.206897-40.827586-3.089655-16.331034-0.662069-32.662069-2.427586-35.972414-3.751724s-9.048276-6.62069-12.57931-11.696552c-9.268966-13.462069-22.289655-19.2-43.696552-19.641379-14.786207 0-18.97931 0.882759-32.220689 7.062069-15.889655 7.503448-33.324138 9.489655-38.4 4.413793-4.413793-4.413793-7.503448 1.103448-6.62069 11.696552l0.662069 9.710345 15.448276 0.220689c10.151724 0.22069 19.2 1.765517 26.482758 4.855173 6.17931 2.648276 14.786207 5.296552 19.42069 5.95862 5.075862 0.882759 8.165517 2.427586 8.165517 4.413794 0 3.310345-8.827586 3.972414-22.068965 1.765517z m-6.62069-57.158621c11.475862-4.193103 26.041379-9.710345 32-12.137931 14.786207-5.517241 18.317241-5.296552 28.689655 1.765517 9.268966 6.62069 9.489655 6.62069 49.655173 5.075862 12.8-0.441379 19.42069 0.441379 29.793103 4.413793 9.710345 3.751724 19.42069 5.075862 37.517242 5.958621 26.482759 0.882759 34.868966-1.324138 35.972413-9.489655 0.441379-3.751724-1.544828-5.517241-11.034482-9.268966-18.758621-7.503448-32-9.931034-46.565518-8.606896-15.448276 1.324138-24.937931-1.544828-31.55862-9.931035-2.206897-3.089655-8.827586-8.827586-14.565518-12.57931-13.462069-9.048276-14.344828-15.668966-2.206896-15.448276 16.110345 0.22069 33.986207 4.634483 58.924138 14.124138 14.124138 5.517241 37.517241 13.02069 52.524138 16.772414 14.786207 3.751724 32.662069 9.268966 39.724138 12.358621 12.137931 5.517241 16.772414 5.737931 13.682758 0.882758-1.765517-3.089655-41.048276-30.675862-54.289655-38.4-24.055172-13.682759-79.006897-31.558621-104.165517-33.544827-20.082759-1.765517-27.586207-3.972414-47.006897-14.786207l-15.668965-8.386207-25.158621 3.310345c-28.689655 3.751724-48.551724 4.193103-58.703448 1.324138-15.889655-4.634483-19.862069 1.765517-11.255173 19.2 7.503448 15.889655 5.517241 17.213793-28.027586 16.110344-23.172414-0.441379-29.572414 0-36.634482 3.089656-4.634483 2.206897-8.606897 4.634483-8.606897 5.737931 0 4.193103 13.02069 12.8 58.041379 38.17931 10.372414 5.958621 19.2 16.772414 19.2 23.613793 0 10.813793 12.137931 11.034483 39.724138 0.662069z m-128.662069-6.17931c8.606897-12.57931 9.710345-23.172414 2.868966-30.013793-8.165517-8.165517-13.02069-5.517241-22.068966 11.475862-5.517241 10.151724-5.517241 18.096552-0.441379 25.15862 5.517241 7.724138 11.034483 5.737931 19.641379-6.620689z m178.317242 3.089655c-0.662069-1.103448-3.310345-2.206897-5.737931-2.206897s-3.751724 1.103448-3.089656 2.206897c0.662069 1.324138 3.310345 2.206897 5.737931 2.206896s3.751724-0.882759 3.089656-2.206896z m110.344827-35.089655c-8.386207-3.531034-20.965517-7.944828-27.586207-9.931035l-12.137931-3.531034 6.62069 5.517241c11.034483 9.489655 23.172414 14.344828 36.413793 14.124138h12.137931l-15.448276-6.17931z" fill="#A9A9A9" p-id="4330"></path><path d="M665.158621 332.137931c-1.986207-7.724138 4.634483-24.275862 11.696551-29.793103 7.282759-5.517241 10.372414-3.089655 9.931035 7.724138-0.441379 8.606897-3.310345 15.227586-9.931035 22.731034-5.958621 6.4-9.931034 6.17931-11.696551-0.662069zM940.137931 406.068966c0-3.531034 1.544828-4.413793 6.62069-4.413794 5.517241 0 6.62069-0.882759 6.620689-5.517241 0-6.4 1.765517-7.062069 5.737931-1.544828 4.634483 6.17931 3.531034 9.268966-4.634482 12.8-10.372414 4.193103-14.344828 3.972414-14.344828-1.324137zM524.57931 269.682759c-4.855172-5.296552-4.855172-22.068966-0.220689-28.689656 2.868966-3.972414 5.296552-4.855172 16.331034-4.855172 12.358621 0 13.241379 0.441379 14.565517 5.737931 1.986207 7.282759-0.22069 19.862069-4.634482 26.482759-4.413793 6.841379-20.524138 7.503448-26.04138 1.324138zM560.110345 148.524138c-3.531034-0.441379-6.17931-1.986207-6.179311-3.089655s-2.427586-1.986207-5.296551-1.986207c-11.475862 0-18.97931-2.648276-18.979311-6.841379 0-5.296552-1.103448-5.296552 27.144828 1.765517 15.006897 3.751724 23.613793 6.841379 23.613793 8.827586 0 2.868966-7.062069 3.310345-20.303448 1.324138z" fill="#A9A9A9" p-id="4331"></path><path d="M419.310345 875.034483c0-0.882759 3.531034-5.517241 7.724138-10.151724 7.944828-8.827586 27.586207-45.682759 27.586207-51.862069 0-7.062069-25.37931-50.096552-32.882759-55.834483-3.972414-3.089655-10.593103-8.386207-14.344828-11.475862s-8.827586-6.17931-11.255172-7.062069c-2.427586-0.662069-10.813793-3.751724-18.537931-7.062069-10.372414-4.413793-19.862069-6.4-37.075862-7.503448-12.57931-0.882759-24.055172-2.868966-25.37931-4.193104-1.986207-1.986207 0.441379-5.737931 9.268965-14.786207 6.62069-7.062069 10.813793-13.241379 9.710345-14.344827-2.648276-2.648276-80.110345-7.062069-91.144828-5.296552-4.855172 0.882759-11.475862 0.662069-14.786207 0-5.737931-1.544828-5.737931-1.765517-4.413793-14.786207 1.544828-12.137931 1.103448-13.682759-4.193103-20.082759-3.089655-3.751724-5.296552-7.724138-4.855173-9.048275s5.517241-2.427586 11.696552-2.648276c11.034483-0.22069 22.951724-5.737931 22.951724-11.034483 0-5.958621-8.606897-10.372414-22.289655-11.255172-7.503448-0.662069-14.565517-1.544828-15.448276-2.206897-1.103448-0.662069-1.986207-6.4-1.986207-12.8 0-8.386207-1.324138-13.462069-4.413793-17.434483-6.17931-7.944828-5.737931-9.710345 5.517242-14.565517 8.386207-3.751724 11.034483-6.4 15.448276-16.110345 8.165517-17.875862 19.2-63.558621 18.317241-75.917241l-0.662069-10.813793-8.165517 0.441379c-6.17931 0.441379-8.386207-0.441379-8.386207-2.868966 0-7.724138 7.282759-18.537931 23.834483-35.751724 32.441379-33.324138 40.165517-48.772414 48.993103-96.441379 6.841379-36.413793 9.710345-44.137931 25.158621-64.22069 5.737931-7.062069 15.889655-20.965517 22.731034-30.675862 16.772414-23.613793 34.648276-40.386207 61.351724-58.041379 11.917241-7.944828 30.896552-21.406897 41.931035-29.793103 35.972414-27.586207 41.710345-28.689655 85.406896-16.110345 15.006897 4.193103 32.22069 8.606897 38.4 9.931034 18.317241 3.751724 35.531034 11.034483 52.524138 22.289655 16.993103 11.475862 36.634483 30.896552 36.634483 36.193104 0 1.765517 4.634483 7.062069 10.372414 11.696552 10.813793 9.048276 21.406897 19.42069 39.282758 38.620689 12.137931 13.241379 47.889655 35.531034 60.689656 38.179311 4.193103 0.662069 23.172414 6.4 41.931034 12.35862 59.365517 19.2 99.531034 42.372414 127.117242 73.931035 15.448276 17.655172 18.97931 23.172414 16.551724 27.144827-1.103448 1.544828-11.255172 5.296552-22.510345 8.165518-11.475862 2.868966-29.131034 7.724138-39.503448 10.813793-22.289655 6.4-27.144828 6.62069-76.137931 3.531034-71.503448-4.634483-79.448276-5.296552-83.2-7.944827-2.206897-1.324138-6.841379-6.62069-10.593104-11.696552-8.165517-11.475862-16.772414-15.889655-34.648276-18.096552-15.227586-1.986207-28.689655 0.441379-48.993103 8.606897-7.944828 3.310345-14.124138 4.413793-18.317242 3.531034-12.57931-2.868966-7.724138-5.737931 37.958621-22.510345 30.896552-11.475862 30.675862-11.475862 46.786207-0.662069 13.241379 8.827586 14.344828 9.268966 24.937931 7.503449 21.186207-3.310345 28.027586-1.986207 35.310345 6.620689 9.268966 10.813793 22.510345 13.241379 48.993103 9.048276 10.593103-1.765517 22.510345-3.310345 26.04138-3.310345 8.606897 0 21.186207-3.531034 26.262069-7.282758 3.089655-2.206897 3.751724-4.634483 2.648275-8.827587-2.868966-11.475862-36.634483-23.613793-65.765517-23.613793-12.8 0-18.317241-1.103448-25.37931-4.855172-15.889655-8.606897-35.972414-23.834483-35.972414-27.144828 0-7.503448 28.910345-2.206897 67.310345 12.358621 15.889655 5.958621 40.606897 13.903448 55.172414 17.655172 14.344828 3.751724 34.206897 10.593103 43.917241 15.448276 9.710345 4.634483 18.096552 7.944828 18.758621 7.503449 3.310345-3.310345-32.22069-32-58.482759-47.006897-33.765517-19.2-80.331034-34.868966-113.875862-37.958621-18.97931-1.765517-30.455172-5.737931-50.317241-17.655172-8.165517-5.075862-7.062069-5.075862-57.379311 0-14.344828 1.324138-22.289655 1.103448-33.986207-1.544828-14.565517-3.310345-15.448276-3.089655-18.317241 0.662069-3.310345 4.413793-2.206897 13.462069 2.868966 23.393104 6.17931 11.917241-0.441379 16.331034-18.979311 12.8-6.4-1.103448-16.772414-2.206897-22.951724-1.986207-13.241379 0-31.117241 6.4-31.117241 10.813793 0 3.972414 24.496552 20.965517 47.448276 32.882759 17.875862 9.489655 27.586207 18.537931 30.013793 28.248275 0.882759 3.310345-0.441379 11.475862-3.310345 20.303449-7.944828 24.496552-7.282759 25.37931 17.655172 24.937931 10.372414-0.22069 19.862069 0.882759 24.496552 2.648276 3.972414 1.765517 17.213793 4.193103 29.351724 5.517241 26.924138 3.089655 36.413793 5.958621 36.413793 11.034483s-11.475862 15.889655-28.910345 27.365517c-18.537931 12.137931-18.97931 15.448276-3.089655 30.455172 6.841379 6.62069 16.993103 19.2 22.510345 28.468966 5.517241 9.048276 15.668966 23.613793 22.510345 32 7.062069 8.606897 18.096552 23.393103 24.496552 33.103448s18.317241 24.496552 26.262069 32.662069c14.344828 15.006897 14.565517 15.227586 14.124137 26.924138-0.441379 12.137931-16.772414 77.02069-24.717241 98.427586-4.855172 13.02069-17.655172 29.131034-29.131034 37.517242-8.827586 6.17931-10.151724 3.972414-4.193104-6.179311 7.503448-12.8 19.862069-52.082759 19.862069-63.337931 0-8.386207-0.662069-10.151724-4.193103-10.151724-13.241379 0-37.517241 32.441379-43.255173 58.04138-5.296552 24.275862-9.710345 36.413793-15.889655 43.696551-11.255172 13.241379-45.682759 32.882759-57.82069 32.882759-2.206897 0-8.606897 2.427586-14.344827 5.517241-12.8 6.841379-21.848276 7.062069-28.027586 0.882759-3.310345-3.310345-4.193103-6.17931-3.089656-10.372414 4.855172-20.082759 4.193103-21.406897-7.282758-13.02069-7.282759 5.517241-20.303448 20.744828-20.303448 23.834483 0 8.386207-30.896552 14.786207-83.862069 17.434483-22.510345 1.324138-44.137931 2.868966-47.889656 3.531034-3.972414 0.662069-7.282759 0.662069-7.282758-0.220689z m96-28.910345c11.034483-0.662069 21.848276-1.544828 24.496552-1.986207 2.648276-0.662069 11.917241-7.724138 20.965517-15.668965 18.97931-16.993103 26.262069-20.744828 41.710345-20.744828h11.034482v15.668965l26.703449-24.937931c14.786207-13.682759 32.441379-32.441379 39.503448-41.489655s20.524138-24.717241 30.234483-34.648276c18.97931-19.862069 24.937931-22.731034 47.227586-22.731034h12.358621l2.868965-13.02069c3.531034-16.993103 2.206897-21.627586-10.151724-35.972414-11.475862-13.462069-18.537931-25.82069-18.537931-33.103448-0.22069-7.724138-7.062069-21.406897-18.537931-35.972414-5.737931-7.282759-16.772414-22.731034-24.496552-34.427586-8.606897-13.02069-19.641379-26.262069-28.468965-34.206896l-14.565518-12.8v-25.379311l13.903449-8.165517c7.503448-4.634483 16.551724-10.151724 20.082758-12.8 5.958621-3.972414 6.17931-4.413793 2.206897-5.958621-2.206897-0.882759-8.606897-1.765517-14.124138-1.986207-5.517241 0-18.758621-1.986207-29.351724-4.413793-17.434483-3.751724-20.524138-3.972414-27.144828-1.103448-6.4 2.648276-7.503448 4.193103-7.503448 10.372414 0 3.972414-2.427586 11.696552-5.517241 16.993103-3.089655 5.075862-5.517241 9.931034-5.517242 10.372414s3.310345 0.882759 7.282759 0.882759c11.255172 0 15.668966 6.17931 16.551724 24.055172 0.882759 14.344828 0.662069 15.227586-5.296552 19.641379-11.255172 8.386207-11.917241 9.268966-11.917241 16.331035 0 10.813793-5.296552 15.006897-18.979311 15.006896-14.344828 0-16.331034-2.648276-16.331034-22.510344 0-11.696552 1.103448-15.448276 6.62069-23.834483 7.724138-11.475862 7.944828-14.344828 2.868965-24.496552-5.517241-10.813793-6.841379-42.151724-1.986207-49.434483 1.986207-2.868966 3.531034-8.386207 3.531035-11.917241s1.986207-12.8 4.413793-20.524138c2.427586-7.503448 4.413793-15.668966 4.413793-17.655172 0-5.517241-8.165517-12.57931-22.068966-18.979311-6.62069-3.089655-16.331034-8.386207-21.406896-11.917241-5.075862-3.310345-9.710345-6.17931-10.151724-6.17931-0.662069 0 0.441379 4.634483 2.206896 10.593103 4.413793 14.124138 2.427586 30.675862-5.075862 44.8-9.048276 16.331034-16.551724 21.848276-29.572414 21.848276s-21.627586-6.17931-28.910344-21.186207c-8.386207-17.655172-3.089655-36.855172 18.75862-66.648276 5.517241-7.503448 11.696552-13.682759 13.462069-13.682758s3.310345-1.765517 3.310345-3.972414c0-8.827586 20.303448-18.97931 42.813793-21.627586 14.124138-1.765517 16.993103-3.972414 26.482759-21.848276 6.62069-12.8 7.282759-13.241379 16.110345-13.903449 5.075862-0.441379 16.331034 0.22069 24.717241 1.324138 13.682759 1.986207 63.337931 0 65.765517-2.648276 2.648276-2.427586-5.075862-10.593103-16.331034-17.655172-16.772414-10.151724-25.82069-18.97931-37.517242-37.517241-11.475862-17.655172-27.806897-35.751724-36.413793-40.165518-5.958621-3.089655-6.17931-2.868966-7.503448 2.868966-3.531034 15.227586-13.241379 20.303448-25.82069 13.462069-6.4-3.310345-41.931034-32.662069-44.35862-36.634483-2.648276-4.634483-15.448276-9.268966-25.158621-9.268965-10.372414 0-20.524138 6.841379-37.737931 25.6-17.434483 18.758621-33.324138 31.558621-42.151724 33.986207-12.8 3.531034-25.6 13.241379-30.455173 22.951724-2.427586 5.075862-7.503448 19.42069-11.696551 32.220689-3.972414 12.8-8.386207 23.834483-9.710345 24.717242-1.103448 0.882759-5.958621 1.765517-10.372414 1.765517-6.17931 0-9.048276 1.324138-11.475862 4.855172-1.765517 2.868966-8.827586 22.510345-15.668966 43.696552-7.062069 21.186207-15.227586 43.696552-18.096551 49.655173-6.841379 13.241379-25.37931 41.710345-39.062069 59.144827-9.489655 12.137931-10.151724 13.903448-10.151724 26.482759 0 7.282759-1.544828 19.641379-3.531035 27.586207-3.531034 13.903448-3.531034 19.862069 0.441379 61.572413 0.662069 8.165517 0.22069 15.227586-1.324137 18.096552-1.986207 4.193103-1.765517 4.634483 3.089655 4.634483 10.813793 0 12.358621 1.765517 12.35862 15.227586 0 8.386207-1.324138 14.565517-4.413793 19.641379-2.648276 4.413793-4.413793 11.034483-4.413793 16.993104v9.931034h8.386207c12.137931 0 13.682759 2.648276 13.682759 23.393104v18.096552l21.627586 1.986206c11.696552 0.882759 29.793103 1.765517 40.165517 1.765518 16.331034-0.22069 20.744828-1.103448 33.986207-7.282759 10.593103-4.855172 18.537931-7.062069 25.82069-7.062069h10.813793v9.489655c0 5.296552-1.765517 12.358621-4.413793 16.551724l-4.413793 7.062069h6.620689c7.944828 0 12.358621 5.958621 15.227586 21.186207 2.427586 12.358621 19.2 59.144828 26.262069 73.048276 6.17931 11.917241 6.17931 27.806897 0.44138 42.593104l-4.413793 11.034482 11.696551 0.22069c6.17931 0 13.462069 0.882759 15.889656 1.986207s6.4 1.544828 8.827586 1.103448c2.427586-0.662069 13.462069-1.765517 24.275862-2.427586z m7.503448-456.827586c10.593103-16.331034 11.475862-33.986207 2.206897-46.124138-6.4-7.944828-11.917241-6.841379-19.2 3.972414-17.655172 25.37931-20.303448 39.503448-9.489656 50.317241 5.737931 5.737931 7.062069 6.17931 13.24138 3.972414 3.972414-1.324138 9.268966-6.4 13.241379-12.137931z" fill="#7B7B7B" p-id="4332"></path><path d="M328.827586 627.862069c0-7.282759 0.441379-7.724138 7.724138-7.724138s7.724138 0.441379 7.724138 7.724138-0.441379 7.724138-7.724138 7.724138-7.724138-0.441379-7.724138-7.724138zM459.475862 338.096552c-7.724138-5.296552-15.227586-64.22069-9.710345-74.813793 3.972414-7.503448 20.744828-15.668966 43.917242-21.848276 13.02069-3.310345 26.703448-8.827586 34.648275-13.462069 12.137931-7.282759 13.682759-7.724138 27.144828-6.62069 18.537931 1.324138 25.82069 6.4 26.703448 18.317242 0.662069 8.386207 0 9.489655-18.096551 25.820689-18.096552 16.551724-18.97931 16.993103-29.793104 16.993104-5.958621 0-11.696552-0.882759-12.358621-2.206897-2.206897-3.531034-8.827586-2.427586-16.551724 2.868966-7.503448 4.855172-7.503448 4.855172-7.503448 22.951724-0.22069 17.434483-0.441379 18.537931-7.282759 25.15862-5.296552 5.517241-9.268966 7.282759-17.655172 7.944828-5.737931 0.441379-11.917241 0-13.462069-1.103448z m86.289655-80.110345c4.855172-9.931034 3.089655-15.227586-5.296551-15.227586-6.17931 0-13.02069 6.62069-13.02069 13.020689 0 4.634483 6.841379 11.475862 10.813793 10.813793 1.986207-0.441379 5.296552-4.193103 7.503448-8.606896zM138.372414 648.165517c-5.737931-3.972414-0.441379-9.489655 11.034483-11.255172 8.827586-1.324138 16.110345 1.986207 16.110344 7.503448 0 4.193103-22.289655 7.503448-27.144827 3.751724zM669.131034 323.089655c0.882759-9.268966 2.427586-13.462069 6.62069-17.875862 3.089655-3.089655 6.841379-4.855172 8.165517-4.193103 5.296552 3.310345 0.662069 22.510345-7.282758 30.675862-6.62069 6.62069-8.606897 4.413793-7.503449-8.606897z" fill="#7B7B7B" p-id="4333"></path><path d="M446.234483 841.048276c11.917241-24.275862 12.358621-28.468966 4.413793-46.124138-9.489655-20.744828-22.289655-56.937931-24.937931-69.737931-2.868966-15.889655-7.282759-21.627586-15.889655-21.186207-15.227586 0.882759-15.448276 0.882759-4.855173-15.448276 12.8-19.862069 9.489655-22.289655-15.448276-10.813793-19.641379 8.827586-31.117241 9.931034-76.137931 6.4-33.544828-2.648276-37.517241-3.310345-37.517241-6.841379 0-2.206897 1.103448-4.634483 2.206897-5.296552 3.089655-1.986207 2.648276-26.262069-0.44138-29.351724-3.531034-3.531034-10.372414-3.310345-21.848276 0.662069-13.682759 4.855172-18.096552 2.427586-7.944827-4.413793 9.048276-6.17931 11.255172-11.696552 9.489655-22.068966-1.103448-5.737931-0.22069-9.268966 4.193103-15.668965 6.17931-9.268966 7.282759-19.641379 1.986207-21.627587-1.986207-0.662069-10.813793-1.324138-19.862069-1.324137-16.331034 0-21.848276-2.868966-10.151724-5.075863 3.531034-0.662069 9.489655-4.193103 13.241379-7.724137 7.503448-7.062069 8.827586-13.462069 4.855173-23.834483-3.531034-9.048276-2.868966-46.565517 0.882759-61.572414 1.986207-7.062069 3.531034-19.2 3.531034-26.703448 0-13.02069 0.662069-14.565517 10.151724-26.703449 13.02069-16.772414 32-45.462069 38.4-58.041379 2.868966-5.517241 11.255172-28.689655 18.97931-51.42069 7.503448-22.951724 15.448276-43.475862 17.655173-46.124137 3.089655-3.089655 5.958621-4.193103 11.034483-3.310345 3.751724 0.662069 7.724138 0.441379 8.827586-0.22069 1.324138-0.882759 5.517241-11.917241 9.489655-24.717241 4.193103-12.8 9.268966-27.144828 11.696552-32.22069 4.855172-9.710345 17.655172-19.42069 30.455172-22.951724 9.268966-2.648276 22.731034-13.462069 42.813793-34.648276 16.772414-17.875862 25.158621-23.834483 36.855173-25.82069 11.255172-1.986207 30.455172 2.648276 36.413793 8.606897 8.606897 8.606897 41.268966 35.531034 46.565517 38.4 4.193103 2.206897 5.296552 1.765517 7.944828-2.427586 1.765517-2.868966 3.751724-7.724138 4.634482-10.813793 4.413793-18.97931 33.103448-0.441379 57.158621 36.855172 12.137931 18.97931 18.758621 25.6 36.855172 37.296552 15.227586 9.710345 20.744828 16.993103 19.42069 25.6-0.441379 4.193103-2.427586 5.517241-10.593103 7.062069-9.268966 1.544828-62.455172 2.206897-82.758621 1.103448-8.606897-0.662069-8.827586-0.441379-15.668966 12.57931-9.489655 17.875862-12.358621 20.082759-26.262068 21.848276-15.227586 1.765517-34.648276 8.827586-39.724138 14.565517-2.206897 2.427586-3.531034 4.855172-3.089656 5.075863 7.944828 6.17931 48.110345 30.896552 57.158621 35.089655 24.717241 11.475862 27.365517 18.096552 18.758621 46.124138-3.310345 10.813793-5.296552 21.186207-4.634483 23.172413s-0.662069 7.062069-3.310345 11.255173c-3.972414 6.17931-4.634483 9.931034-3.531034 18.97931 0.662069 6.4 2.427586 14.565517 3.751724 18.096552l2.648276 6.62069 2.648276-6.62069c1.324138-3.531034 4.634483-10.813793 7.503448-15.889655 2.648276-5.075862 4.855172-12.358621 4.855172-16.110345 0-5.737931 1.324138-7.282759 7.724138-10.151724 9.931034-4.193103 16.331034-3.972414 39.944828 1.324138 10.813793 2.427586 23.834483 4.413793 29.131034 4.413793 5.075862 0 12.8 1.544828 17.213793 3.310345 6.841379 2.868966 7.503448 3.751724 5.296552 7.503448-2.648276 5.296552-11.475862 11.917241-30.234483 23.172414-19.2 11.255172-18.97931 15.889655 0.662069 33.103448 8.827586 7.944828 19.862069 21.186207 28.468966 34.206897 7.724138 11.696552 18.758621 27.144828 24.496552 34.427586 11.475862 14.565517 18.317241 28.248276 18.537931 35.972414 0 7.062069 6.841379 19.641379 16.993103 31.337931 11.917241 13.682759 14.344828 18.758621 14.344828 30.896551-0.22069 10.593103-5.737931 35.089655-9.489656 42.372414-3.310345 6.17931-8.606897 4.634483-10.151724-2.868965-1.324138-6.841379-1.544828-6.841379-11.034482-5.517242-5.296552 0.662069-12.358621 2.648276-15.668966 4.413793-6.17931 3.310345-35.310345 34.206897-48.993103 52.082759-11.255172 14.565517-81.434483 83.862069-85.186207 83.862069-4.413793 0-3.751724-8.165517 1.324138-19.641379 5.517241-11.917241 5.517241-13.462069 0-13.462069-8.606897 0-18.758621 5.958621-35.089656 20.744827-18.096552 16.110345-16.993103 15.889655-46.565517 18.096552-24.496552 1.986207-37.958621 1.986207-56.496552-0.22069-10.151724-1.103448-15.006897-0.662069-19.862068 1.765517l-6.4 3.310345 8.165517-16.993103z m76.35862-5.737931c28.689655-3.089655 28.468966-2.868966 52.744828-21.186207 7.724138-5.958621 11.696552-7.062069 24.717241-8.165517 14.565517-0.882759 15.668966-0.662069 17.434483 3.751724 1.544828 4.634483 2.648276 4.193103 16.331035-8.606897 20.965517-18.97931 29.351724-31.558621 37.95862-56.496551 3.972414-11.917241 13.903448-33.324138 21.627587-47.227587l14.344827-25.37931 11.034483-0.662069c9.268966-0.441379 12.137931 0.22069 17.875862 5.075862 3.751724 3.089655 10.372414 6.4 14.565517 7.062069 6.841379 1.103448 8.165517 0.441379 10.372414-4.193103 1.986207-4.413793 1.765517-7.062069-1.103448-12.358621-5.517241-10.813793-28.689655-38.62069-38.62069-46.565517-8.165517-6.4-9.048276-8.165517-9.048276-16.993104 0-5.296552 1.103448-9.710345 2.206897-9.710345 9.710345 0-17.434483-53.186207-35.972414-70.17931-28.248276-26.482759-25.82069-23.172414-25.82069-36.634483 0-11.475862 0.662069-13.241379 9.048276-22.289655l9.048276-9.710345-12.57931-3.751724c-15.227586-4.193103-19.641379-2.648276-29.351724 11.034483-6.17931 8.386207-6.4 9.489655-3.531035 15.006896 4.855172 9.048276 14.124138 50.096552 14.124138 62.013794 0 9.931034-0.882759 11.475862-11.034483 21.406896-5.958621 5.958621-11.034483 11.696552-11.034483 13.02069s-3.972414 2.427586-9.048275 2.427586c-10.593103 0-22.951724-8.606897-30.675862-21.186207-4.413793-6.841379-4.634483-9.489655-3.310345-28.027586 0.882759-11.034483 1.765517-36.193103 1.986207-55.613793 0.441379-39.282759 3.531034-61.351724 10.593103-75.917242 5.296552-11.034483 4.193103-14.344828-6.17931-20.082758-4.413793-2.206897-10.151724-3.089655-15.889655-2.648276-9.268966 0.882759-9.268966 0.882759-18.096552 19.862069-5.517241 11.696552-12.358621 22.068966-17.875862 27.365517-7.503448 7.282759-10.151724 8.386207-18.758621 8.386207-19.862069 0-33.986207-17.655172-33.986207-42.151724 0-11.696552 1.324138-16.551724 7.724138-29.131035 7.944828-15.448276 7.944828-16.551724-1.103448-11.475862-8.386207 4.855172-28.027586 4.413793-30.675862-0.662069-2.868966-5.517241-9.048276-50.537931-9.048276-66.427586 0-9.489655 1.103448-14.344828 4.413793-18.537931 5.296552-6.62069 31.117241-17.875862 50.537931-21.627586 9.268966-1.765517 16.551724-4.634483 20.965517-8.606897 13.682759-11.696552 17.213793-13.241379 31.779311-13.241379 24.717241 0 37.958621 9.710345 37.95862 28.248276 0 10.593103-3.751724 15.448276-26.482758 34.206896-8.606897 7.062069-9.268966 8.165517-4.855173 8.165518 3.310345 0 9.931034-5.075862 19.862069-15.448276l14.786207-15.227586 35.310345 1.324138c50.97931 1.765517 56.275862-1.544828 32.441379-19.42069-15.227586-11.475862-19.862069-16.772414-32.441379-35.089655-9.268966-13.903448-25.37931-29.131034-25.37931-24.275862 0 3.972414-13.903448 11.034483-21.627587 11.034482-10.151724 0-17.213793-4.193103-31.337931-18.75862-14.344828-14.786207-34.868966-29.351724-43.696551-31.117242-5.296552-1.103448-7.282759-0.22069-11.255173 4.855173-2.648276 3.531034-8.165517 8.165517-12.35862 10.813793-9.268966 5.517241-31.337931 22.068966-38.62069 28.910345-3.089655 2.868966-13.682759 9.489655-23.172414 14.565517-23.613793 12.8-33.103448 26.262069-37.517241 53.627586-4.413793 26.482759-9.489655 35.310345-22.289655 37.737931-13.682759 2.427586-24.717241 21.848276-22.068966 37.958621 3.531034 20.524138 3.972414 33.544828 1.324138 41.489655-4.855172 15.227586-15.668966 29.572414-34.427586 45.241379-10.151724 8.386207-19.42069 17.213793-20.524138 19.2-1.544828 2.868966-0.441379 7.062069 3.310345 14.786207 5.296552 11.255172 7.282759 33.324138 3.310344 37.517242-2.868966 3.310345-6.841379 34.427586-6.841379 54.510344 0 17.434483 0.22069 17.875862 7.724138 25.158621 6.841379 6.4 7.724138 8.606897 7.724138 18.096552 0 9.931034-0.882759 11.696552-8.827586 18.97931-4.855172 4.413793-9.710345 7.944828-10.813793 7.944828-2.648276 0-7.503448 12.57931-5.737931 15.227586 0.662069 1.324138 4.193103 2.427586 7.724138 2.427586 4.855172 0 7.944828-1.986207 12.57931-8.165517 28.910345-39.724138 42.372414-51.42069 58.262069-51.42069 9.489655 0 11.255172 0.882759 17.213793 8.165518 9.931034 11.917241 13.462069 20.965517 13.462069 33.544827 0 10.813793-0.882759 13.241379-14.344828 36.634483-5.296552 9.048276-9.489655 25.37931-6.620689 25.37931 0.882759 0 12.358621-3.972414 25.6-8.827586 40.827586-15.006897 49.213793-12.137931 54.068965 17.655172 1.544828 10.372414 3.089655 22.289655 3.089655 26.482759 0 13.903448 4.413793 24.496552 14.565518 35.089655 10.593103 11.034483 11.475862 14.786207 7.724138 34.648276-1.103448 5.958621-2.427586 21.186207-2.868966 33.986207-0.662069 22.731034-0.662069 23.172414 4.855173 26.041379 3.531034 1.765517 9.048276 2.427586 15.448275 1.544828 5.517241-0.882759 22.068966-2.648276 37.075862-4.413793z m78.124138-291.751724c2.206897-1.986207 3.972414-6.62069 3.972414-10.813793 0-7.503448 0.662069-8.165517 11.917242-16.772414 5.517241-4.193103 6.17931-5.737931 5.075862-13.24138-1.544828-10.813793-7.062069-17.213793-14.786207-17.213793-5.958621 0-11.034483 6.841379-11.034483 15.006897 0 1.986207-3.089655 8.165517-6.62069 13.682759-6.841379 10.372414-8.386207 21.186207-4.413793 28.910344 2.868966 5.075862 10.372414 5.517241 15.889655 0.44138z m-81.213793-131.089655c6.62069-5.296552 16.110345-20.524138 18.979311-31.117242 1.544828-5.296552 1.324138-10.372414-1.324138-19.42069-4.193103-14.786207-14.124138-33.103448-18.096552-33.103448-5.517241 0-29.351724 36.413793-33.765517 51.64138-2.427586 8.386207 4.193103 22.951724 13.903448 31.117241 7.944828 6.62069 12.57931 6.841379 20.303448 0.882759z m-35.089655-88.275863c6.4-6.17931 6.62069-7.062069 5.958621-23.834482-0.441379-16.551724-0.22069-17.655172 5.296552-22.068966 3.310345-2.648276 9.931034-5.737931 14.786206-7.282758 7.503448-2.206897 9.710345-1.986207 15.227587 1.103448 3.531034 1.986207 8.165517 3.751724 10.151724 3.751724 1.986207-0.22069 12.137931-8.165517 22.510345-17.875862l18.75862-17.434483-5.95862-5.296552c-3.310345-2.868966-9.931034-5.958621-14.786207-6.841379-7.724138-1.324138-10.593103-0.441379-21.627587 6.17931-7.724138 4.634483-21.627586 10.151724-34.427586 13.462069-23.172414 6.17931-39.944828 14.344828-43.917241 21.848276-4.855172 9.268966 2.648276 56.937931 9.710345 61.351724 4.193103 2.648276 10.813793 0.22069 18.317241-7.062069z" fill="#424242" p-id="4334"></path><path d="M559.668966 724.965517c-1.986207-2.206897-3.531034-7.282759-3.531035-12.35862v-8.827587l12.8 0.662069 12.57931 0.662069v22.068966l-9.048275 0.662069c-6.17931 0.441379-10.372414-0.441379-12.8-2.868966zM556.57931 666.041379l0.662069-11.696551 16.772414-8.386207c10.372414-5.296552 22.951724-14.124138 33.103448-23.834483 15.668966-14.565517 16.772414-15.227586 26.262069-14.786207 9.710345 0.662069 9.931034 0.662069 10.593104 9.268966 0.441379 4.634483-0.882759 11.696552-2.868966 15.668965-8.827586 18.758621-52.082759 45.241379-74.151724 45.241379h-11.034483l0.662069-11.475862zM520.827586 600.937931c0-7.062069 1.765517-9.931034 13.462069-20.965517 11.475862-11.255172 14.344828-12.8 22.068966-12.8 8.606897 0 8.606897 0 8.606896 8.386207-0.22069 9.048276-4.193103 14.786207-19.2 26.482758-6.4 5.075862-11.255172 7.062069-16.993103 7.062069-7.724138 0-7.944828-0.22069-7.944828-8.165517zM485.958621 512c-9.268966-4.193103-9.489655-4.634483-8.827587-13.682759l0.662069-9.489655h22.731035c24.937931 0 26.924138 0.882759 26.924138 13.462069 0 3.751724-1.765517 8.386207-3.972414 10.372414-5.737931 5.296552-25.37931 4.855172-37.517241-0.662069zM733.131034 281.37931c-11.034483-5.075862-15.006897-9.931034-8.165517-9.931034 4.193103 0 20.082759 7.944828 21.848276 10.813793 2.868966 4.634483-2.868966 4.193103-13.682759-0.882759z" fill="#424242" p-id="4335"></path><path d="M464.110345 845.462069c-7.724138-3.531034-10.372414-10.372414-7.503448-20.965517 1.103448-4.855172 2.648276-19.42069 3.310344-32.22069s1.765517-25.158621 2.427587-27.586207c0.882759-3.310345-1.324138-7.062069-8.606897-14.565517-10.151724-10.593103-14.565517-21.186207-14.565517-35.089655-0.22069-12.8-5.737931-43.917241-8.606897-47.227586-5.296552-6.4-11.034483-5.737931-34.868965 3.310344-13.02069 5.075862-27.144828 9.268966-31.337931 9.489656-6.4 0.22069-7.944828-0.662069-9.710345-6.179311-2.427586-7.503448 1.986207-23.393103 11.255172-38.620689 10.813793-18.096552 12.137931-21.627586 10.593104-29.351725-1.765517-9.268966-16.551724-29.131034-22.510345-30.013793-6.62069-0.882759-24.275862 14.124138-38.4 32.662069-21.848276 28.689655-21.406897 28.468966-35.310345 26.703449l-12.137931-1.324138-0.662069-8.606897c-0.662069-8.827586 3.089655-21.186207 6.4-21.186207 3.972414 0 19.641379-16.110345 19.641379-20.303448 0-2.427586-3.531034-7.503448-7.724138-11.475862l-7.724137-7.282759v-24.496552c0-25.82069 3.531034-57.37931 6.841379-60.910344 3.531034-3.751724 2.206897-13.241379-3.531035-24.496552-5.737931-11.917241-6.841379-20.965517-3.310344-27.586207 1.324138-2.427586 10.593103-11.255172 20.744827-19.641379 18.758621-15.668966 29.572414-30.013793 34.427586-45.24138 2.427586-7.282759 2.206897-11.034483-1.103448-24.275862-3.751724-14.786207-3.751724-16.551724-0.22069-28.248276 4.413793-15.668966 12.137931-25.158621 22.068966-26.924137 12.8-2.427586 17.875862-11.255172 22.289655-37.737931 4.413793-26.924138 13.903448-41.048276 36.413793-52.965518 14.786207-7.944828 21.848276-13.02069 50.758621-36.193103 4.193103-3.310345 10.813793-7.724138 14.565517-9.710345s7.503448-5.075862 8.165517-6.841379 3.751724-4.855172 6.62069-6.84138c11.917241-7.724138 38.62069 5.296552 63.337931 30.896552 16.331034 16.772414 22.289655 19.862069 30.455172 15.668966 3.310345-1.765517 7.724138-5.296552 9.931035-7.944828 2.868966-3.310345 5.296552-4.193103 8.827586-3.089655 8.606897 2.648276 19.2 12.8 29.131035 27.365517 11.475862 17.213793 19.641379 25.82069 33.103448 35.531035 9.268966 6.62069 18.758621 18.317241 18.758621 23.172413 0 7.724138-38.841379 13.02069-70.179311 9.489656l-16.993103-1.986207-14.565517 15.227586c-10.593103 11.034483-16.551724 15.448276-22.068966 16.331034-9.931034 1.765517-22.731034-1.103448-23.613793-5.296551-0.22069-1.765517 7.282759-9.489655 18.317241-18.317242 23.613793-18.758621 27.365517-23.834483 22.951724-31.77931s-12.8-13.682759-22.289655-15.006897c-11.475862-1.986207-16.993103 0-28.027586 9.268966-7.282759 6.4-13.241379 9.048276-26.924138 12.137931-23.172414 5.517241-44.8 15.448276-49.655172 22.951724-3.751724 5.958621-3.751724 7.503448-0.22069 35.751724 1.986207 16.331034 4.855172 31.558621 5.958621 33.986207 3.089655 5.296552 9.048276 5.296552 19.862069-0.22069 9.268966-4.634483 16.772414-5.517241 21.848276-2.427586 3.531034 2.206897 1.765517 8.827586-5.517242 20.303448-7.282759 11.917241-11.917241 23.613793-11.917241 31.337932 0 12.8 17.213793 34.648276 27.365517 34.648275 6.841379 0 21.186207-16.772414 30.013793-35.751724l8.827586-18.97931 14.124138-1.544828c11.255172-1.103448 16.110345-0.662069 22.289655 2.427587 15.227586 7.282759 17.655172 16.110345 8.827587 33.324137-3.089655 5.737931-5.958621 15.668966-6.62069 21.627587-0.662069 6.17931-1.986207 13.02069-2.868965 15.448276-0.662069 2.427586-1.544828 20.303448-1.765518 39.724137 0 19.42069-0.882759 41.489655-1.765517 48.993104-1.544828 11.917241-1.324138 14.565517 2.868966 21.406896 7.944828 12.57931 26.703448 25.82069 26.703448 18.758621 0-1.324138 5.075862-7.062069 11.034483-13.02069 6.17931-5.958621 11.034483-12.358621 11.034482-14.786206 0-8.386207-11.475862-50.537931-15.448276-57.6-2.427586-3.972414-4.413793-8.386207-4.413793-9.931035 0-5.296552 15.668966-25.37931 22.951725-29.131034 7.062069-3.972414 7.944828-3.972414 21.406896-0.22069 15.006897 4.193103 24.055172 8.827586 24.055172 12.358621 0 1.103448-5.075862 7.724138-11.034482 14.344827-13.462069 14.786207-14.124138 20.744828-3.531035 30.675862 3.972414 3.751724 12.358621 11.475862 18.317242 17.213793 7.282759 6.62069 15.668966 18.537931 24.937931 35.310345 12.137931 21.627586 14.124138 26.482759 13.903448 35.972414 0 5.958621-1.324138 11.255172-2.648276 11.696552-4.634483 1.544828-2.427586 5.075862 13.682759 20.965517 22.068966 21.848276 34.648276 41.268966 34.648276 53.186207 0 14.565517-3.310345 17.434483-19.2 16.331034-10.372414-0.662069-15.006897-2.206897-20.524138-7.062069-3.972414-3.310345-9.268966-5.737931-11.696552-5.296551-6.17931 0.882759-31.117241 45.682759-40.386207 73.268965-10.151724 29.351724-21.627586 44.358621-55.172414 71.503448-14.124138 11.475862-17.213793 11.917241-15.227586 2.206897 0.882759-3.972414 1.765517-8.165517 1.986207-9.489655 0-1.324138-3.972414-1.986207-9.489655-1.765517-7.062069 0.441379-12.358621 2.427586-18.758621 7.282758-23.834483 18.096552-23.834483 17.875862-53.627586 21.406897-40.606897 4.413793-58.482759 5.296552-64 3.089655z m110.786207-129.544828c0-2.868966-1.765517-4.413793-5.958621-4.855172-6.841379-0.882759-7.944828 1.986207-2.648276 7.282759 4.413793 4.413793 8.606897 3.310345 8.606897-2.427587z m14.786207-53.848275c20.524138-9.710345 39.724138-25.158621 45.020689-36.413794 3.531034-7.724138 2.648276-12.8-2.427586-11.696551-1.544828 0.441379-9.931034 7.062069-18.537931 15.006896-8.827586 7.944828-23.172414 18.317241-32.662069 23.172414-12.57931 6.62069-17.434483 10.372414-17.875862 13.903448-1.103448 7.282759 5.296552 6.17931 26.482759-3.972413z m-50.537931-66.648276c14.344828-11.255172 22.731034-21.627586 17.434482-21.627587-2.648276 0-24.496552 19.862069-27.144827 24.496552-3.089655 5.958621-0.662069 5.296552 9.710345-2.868965z m-22.068966-89.6c6.4-7.062069 1.324138-10.372414-16.331034-10.372414-19.2 0-22.289655 3.531034-8.165518 9.931034 11.917241 5.296552 19.862069 5.517241 24.496552 0.44138z" fill="#151515" p-id="4336"></path></svg>